name analog
datacolumns 19
datarows 28
range 0.1935 0.20700000000000002
endheader
time	ground_force_vx	ground_force_vy	ground_force_vz	ground_force_px	ground_force_py	ground_force_pz	l_ground_force_vx	l_ground_force_vy	l_ground_force_vz	l_ground_force_px	l_ground_force_py	l_ground_force_pz	ground_torque_x	ground_torque_y	ground_torque_z	l_ground_torque_x	l_ground_torque_y	l_ground_torque_z
0.1935	-0.0	-0.0	-0.0	5.438500881195068	57.76317596435547	-365.5346374511719	10.638933181762695	-60.05874633789063	-362.4006042480469	-0.0	-0.0	-0.0	-0.0	-0.0	-0.0	99433.2734375	-35560.953125	1950.669921875
0.194	-0.0	-0.0	-0.0	4.031538009643555	57.85074996948242	-367.59954833984375	10.814583778381348	-59.61552429199219	-361.0035705566406	-0.0	-0.0	-0.0	-0.0	-0.0	-0.0	99407.71875	-35436.32421875	1802.5992431640625
0.1945	-0.0	-0.0	-0.0	3.2202930450439453	58.738677978515625	-367.3140258789063	10.469534873962402	-59.09383392333984	-359.30975341796875	-0.0	-0.0	-0.0	-0.0	-0.0	-0.0	98858.1328125	-35163.90625	1684.954345703125
0.195	-0.0	-0.0	-0.0	2.681650161743164	59.184364318847656	-367.6462707519531	10.380859375	-59.18228912353516	-360.3445129394531	-0.0	-0.0	-0.0	-0.0	-0.0	-0.0	99111.53125	-35111.484375	1565.6800537109375
0.1955	-0.0	-0.0	-0.0	1.6184920072555542	59.80469131469727	-370.1253967285156	9.93560791015625	-59.8786506652832	-360.324462890625	-0.0	-0.0	-0.0	-0.0	-0.0	-0.0	98965.9609375	-35129.3125	1329.05810546875
0.196	-0.0	-0.0	-0.0	1.6150448322296145	59.89748001098633	-372.8920593261719	9.483202934265137	-60.060508728027344	-362.0632934570313	-0.0	-0.0	-0.0	-0.0	-0.0	-0.0	99171.421875	-34581.3359375	1121.0904541015625
0.1965	-0.0	-0.0	-0.0	1.429255723953247	60.25592422485352	-372.9131774902344	8.700882911682129	-60.1452751159668	-362.0915832519531	-0.0	-0.0	-0.0	-0.0	-0.0	-0.0	99503.5390625	-35021.203125	762.1762084960938
0.197	-0.0	-0.0	-0.0	1.522347331047058	61.39355850219727	-372.9580078125	8.693656921386719	-60.23722457885742	-362.4411315917969	-0.0	-0.0	-0.0	-0.0	-0.0	-0.0	99451.015625	-34450.5234375	583.5476684570312
0.1975	-0.0	-0.0	-0.0	1.3401169776916504	61.15324401855469	-376.12115478515625	8.606823921203613	-60.41203308105469	-363.7790222167969	-0.0	-0.0	-0.0	-0.0	-0.0	-0.0	99586.78125	-34571.3984375	437.6208190917969
0.198	-0.0	-0.0	-0.0	0.971336841583252	62.11193084716797	-378.9304809570313	8.782367706298828	-60.23729705810547	-364.5444030761719	-0.0	-0.0	-0.0	-0.0	-0.0	-0.0	100365.578125	-34675.40234375	406.8823547363281
0.1985	-0.0	-0.0	-0.0	0.1906073093414306	62.83490753173828	-382.8068542480469	8.510388374328613	-60.677001953125	-367.6259765625	-0.0	-0.0	-0.0	-0.0	-0.0	-0.0	100729.328125	-34570.78125	197.63714599609372
0.199	-0.0	-0.0	-0.0	0.1825559884309768	63.80290985107422	-384.9497680664063	8.60494613647461	-60.77322769165039	-370.0694580078125	-0.0	-0.0	-0.0	-0.0	-0.0	-0.0	101188.1796875	-34735.515625	81.0033187866211
0.1995	-0.0	-0.0	-0.0	1.2426353693008425	63.37171936035156	-386.0423583984375	8.6956787109375	-60.857669830322266	-370.0768432617188	-0.0	-0.0	-0.0	-0.0	-0.0	-0.0	101071.1875	-34447.5	52.08258438110352
0.2	-0.0	-0.0	-0.0	1.684305191040039	63.65192794799805	-386.7405090332031	9.139266967773438	-60.15935516357422	-368.3792724609375	-0.0	-0.0	-0.0	-0.0	-0.0	-0.0	100956.203125	-34362.578125	164.39019775390625
0.2005	-0.0	-0.0	-0.0	2.4957189559936523	63.47171401977539	-387.085205078125	9.496238708496094	-60.147071838378906	-366.6256713867188	-0.0	-0.0	-0.0	-0.0	-0.0	-0.0	100241.96875	-34055.16796875	81.86798095703125
0.201	-0.0	-0.0	-0.0	3.5750558376312256	64.07150268554688	-387.359619140625	9.937736511230469	-59.80014419555664	-367.6064147949219	-0.0	-0.0	-0.0	-0.0	-0.0	-0.0	99693.859375	-33735.50390625	138.0631103515625
0.2015	-0.0	-0.0	-0.0	4.453784465789795	63.90874862670898	-388.4801330566406	10.374834060668944	-59.26385498046875	-365.1614990234375	-0.0	-0.0	-0.0	-0.0	-0.0	-0.0	99665.7734375	-33538.83203125	51.65364074707031
0.202	-0.0	-0.0	-0.0	4.2866716384887695	64.00931549072266	-387.4745788574219	10.117429733276367	-59.782833099365234	-366.2167663574219	-0.0	-0.0	-0.0	-0.0	-0.0	-0.0	99494.0234375	-33317.2265625	-185.9735565185547
0.2025	-0.0	-0.0	-0.0	4.8266472816467285	64.17388916015625	-389.5299377441406	9.678421020507812	-59.882102966308594	-366.224853515625	-0.0	-0.0	-0.0	-0.0	-0.0	-0.0	99172.84375	-33063.78515625	-189.3023223876953
0.203	-0.0	-0.0	-0.0	4.65778923034668	64.35686492919922	-389.5388488769531	9.662660598754885	-59.89340972900391	-365.5707092285156	-0.0	-0.0	-0.0	-0.0	-0.0	-0.0	99359.359375	-33169.41796875	-365.0689086914063
0.20350000000000001	-0.0	-0.0	-0.0	4.641338348388672	64.80258178710938	-388.55474853515625	9.39411163330078	-60.49576187133789	-367.6385192871094	-0.0	-0.0	-0.0	-0.0	-0.0	-0.0	99861.3515625	-32900.421875	-600.4221801757812
0.20400000000000001	-0.0	-0.0	-0.0	4.103683471679688	65.68424987792969	-392.0008850097656	9.221233367919922	-60.67000198364258	-369.7515869140625	-0.0	-0.0	-0.0	-0.0	-0.0	-0.0	100063.59375	-33183.4921875	-780.9008178710938
0.20450000000000002	-0.0	-0.0	-0.0	3.047945022583008	65.69156646728516	-391.3623962402344	9.573623657226562	-60.24960708618164	-369.0813903808594	-0.0	-0.0	-0.0	-0.0	-0.0	-0.0	100562.6171875	-32879.390625	-924.1002197265624
0.20500000000000002	-0.0	-0.0	-0.0	2.428683280944824	65.99146270751953	-393.4226379394531	9.482392311096191	-60.83921813964844	-371.8179626464844	-0.0	-0.0	-0.0	-0.0	-0.0	-0.0	100925.296875	-32728.1640625	-927.48681640625
0.20550000000000002	-0.0	-0.0	-0.0	2.250553846359253	66.40974426269531	-396.1775207519531	9.39844036102295	-61.29280853271485	-372.5158386230469	-0.0	-0.0	-0.0	-0.0	-0.0	-0.0	101097.3125	-33120.75390625	-1047.1256103515625
0.20600000000000002	-0.0	-0.0	-0.0	2.235408306121826	65.87765502929688	-398.2952880859375	9.21845817565918	-61.48675537109375	-373.94140625	-0.0	-0.0	-0.0	-0.0	-0.0	-0.0	101699.53125	-32618.140625	-1106.6309814453125
0.20650000000000002	-0.0	-0.0	-0.0	2.4008593559265137	66.31562805175781	-397.69091796875	8.71384048461914	-62.345062255859375	-376.0065307617188	-0.0	-0.0	-0.0	-0.0	-0.0	-0.0	102076.640625	-32979.7578125	-1227.55126953125
0.20700000000000002	-0.0	-0.0	-0.0	3.035801887512207	66.2998046875	-399.0095520019531	8.61262321472168	-62.6098861694336	-377.77197265625	-0.0	-0.0	-0.0	-0.0	-0.0	-0.0	102424.484375	-32703.994140625	-1490.4122314453125
